<?xml version="1.0"?>
<svg width="187" height="200" xmlns="http://www.w3.org/2000/svg" xmlns:svg="http://www.w3.org/2000/svg" version="1.1">

 <g class="layer">
  <title>Layer 1</title>
  <path d="m96,21c2.31,1.01 2.31,1.01 4.71,2.27c0.9,0.47 1.81,0.94 2.74,1.42c0.96,0.52 1.93,1.03 2.93,1.56c1.01,0.53 2.02,1.07 3.06,1.61c10.06,5.34 19.95,10.95 29.83,16.59c4.32,2.45 8.65,4.88 12.98,7.3c1.12,0.63 1.12,0.63 2.26,1.27c2.8,1.56 5.44,2.96 8.49,3.98c0.02,0.63 0.05,1.26 0.07,1.91c0.24,6.58 0.48,13.17 0.73,19.76c0.09,2.45 0.18,4.9 0.27,7.36c0.13,3.54 0.26,7.08 0.39,10.62c0.04,1.08 0.08,2.17 0.12,3.29c0.3,7.71 0.89,15.32 1.97,22.97c0.5,5.51 0.81,9.46 -2.85,13.85c-2.82,2.18 -5.64,4.11 -8.67,5.97c-2.89,1.81 -5.64,3.79 -8.42,5.78c-2.17,1.55 -4.36,3.09 -6.55,4.62c-4.37,3.07 -8.63,6.29 -12.89,9.52c-4.63,3.43 -9.35,6.73 -14.08,10.02c-4.63,3.24 -9.03,6.62 -13.23,10.42c-1.86,0.91 -1.86,0.91 -4.16,0.17c-2.79,-1.3 -5.26,-2.79 -7.83,-4.49c-0.97,-0.64 -1.95,-1.28 -2.95,-1.94c-1.51,-1 -1.51,-1 -3.05,-2.02c-1.98,-1.3 -3.96,-2.61 -5.94,-3.92c-0.98,-0.64 -1.97,-1.29 -2.98,-1.96c-3.78,-2.47 -7.59,-4.9 -11.41,-7.32c-3.57,-2.26 -7.12,-4.56 -10.67,-6.86c-4.55,-2.95 -9.1,-5.9 -13.67,-8.83c-0.78,-0.5 -1.55,-1 -2.35,-1.51c-1.5,-0.97 -3,-1.92 -4.49,-2.88c-5.14,-3.31 -5.14,-3.31 -7.36,-5.53c-0.25,-2.52 -0.38,-4.93 -0.42,-7.46c-0.02,-0.77 -0.04,-1.54 -0.06,-2.33c-0.06,-2.55 -0.1,-5.11 -0.14,-7.66c-0.02,-1.31 -0.02,-1.31 -0.04,-2.64c-0.06,-4.62 -0.11,-9.24 -0.15,-13.86c-0.04,-3.82 -0.11,-7.63 -0.21,-11.45c-0.12,-4.61 -0.18,-9.22 -0.2,-13.84c-0.01,-1.75 -0.05,-3.51 -0.11,-5.27c-0.17,-5.39 -0.17,-10.28 1.33,-15.49c3.58,-3.58 7.29,-5.28 12,-7c1.45,-0.69 2.89,-1.39 4.33,-2.12c1.3,-0.59 2.61,-1.17 3.92,-1.75c6.46,-2.96 12.63,-6.22 18.78,-9.76c5.39,-3.09 10.89,-5.91 16.48,-8.63c0.62,-0.3 1.23,-0.61 1.87,-0.92c0.6,-0.29 1.2,-0.58 1.82,-0.88c1.89,-0.99 3.65,-2.1 5.45,-3.23c3.78,-1.93 4.45,-1.84 8.35,-0.71z" fill="#FEA30F" id="svg_2"/>
  <path d="m90,21c0.99,0.49 0.99,0.49 2,1c-17.27,30.32 -17.27,30.32 -26,45c-0.55,0.92 -1.09,1.84 -1.66,2.79c-0.72,1.22 -0.72,1.22 -1.47,2.46c-0.44,0.76 -0.88,1.51 -1.34,2.29c-1.2,1.92 -2.47,3.79 -3.78,5.64c-0.38,0.56 -0.76,1.12 -1.16,1.7c-1.09,1.59 -2.22,3.17 -3.34,4.75c-1.81,4.89 -0.19,7.72 1.75,12.37c0.48,1.41 0.94,2.83 1.39,4.25c2.69,8.17 5.5,16.27 8.56,24.31c1.81,4.77 3.49,9.57 5.05,14.44c6.9,-0.71 13.72,-1.7 20.56,-2.81c1.1,-0.18 2.2,-0.35 3.33,-0.53c5.28,-0.84 10.54,-1.72 15.78,-2.81c18.38,-3.69 36.67,-3.24 55.33,-2.85c-1.44,4.32 -4.75,5.86 -8.37,8.31c-1.57,1.08 -3.13,2.16 -4.69,3.24c-0.81,0.57 -1.63,1.13 -2.47,1.71c-4.02,2.83 -7.96,5.75 -11.91,8.68c-7.04,5.22 -14.12,10.39 -21.25,15.48c-3.37,2.42 -6.7,4.86 -9.93,7.46c-0.82,0.65 -0.82,0.65 -1.65,1.32c-1.43,1.15 -2.84,2.31 -4.25,3.48c-1.23,0.66 -1.23,0.66 -2.48,1.32c-3.77,-1.16 -6.86,-3.07 -10.13,-5.23c-0.97,-0.64 -1.95,-1.28 -2.95,-1.94c-1.51,-1 -1.51,-1 -3.05,-2.02c-1.98,-1.3 -3.96,-2.61 -5.94,-3.92c-0.98,-0.64 -1.97,-1.29 -2.98,-1.96c-3.78,-2.47 -7.59,-4.9 -11.41,-7.32c-3.57,-2.26 -7.12,-4.56 -10.67,-6.86c-4.55,-2.95 -9.1,-5.9 -13.67,-8.83c-0.78,-0.5 -1.55,-1 -2.35,-1.51c-1.5,-0.97 -3,-1.92 -4.49,-2.88c-5.14,-3.31 -5.14,-3.31 -7.36,-5.53c-0.25,-2.52 -0.38,-4.93 -0.42,-7.46c-0.02,-0.77 -0.04,-1.54 -0.06,-2.33c-0.06,-2.55 -0.1,-5.11 -0.14,-7.66c-0.02,-1.31 -0.02,-1.31 -0.04,-2.64c-0.06,-4.62 -0.11,-9.24 -0.15,-13.86c-0.04,-3.82 -0.11,-7.63 -0.21,-11.45c-0.12,-4.61 -0.18,-9.22 -0.2,-13.84c-0.01,-1.75 -0.05,-3.51 -0.11,-5.27c-0.17,-5.39 -0.17,-10.28 1.33,-15.49c3.58,-3.58 7.29,-5.28 12,-7c1.45,-0.69 2.89,-1.39 4.33,-2.12c1.3,-0.59 2.61,-1.17 3.92,-1.75c6.45,-2.96 12.63,-6.22 18.78,-9.76c7.17,-4.11 14.55,-7.74 21.97,-11.37c1.1,-0.59 2.2,-1.18 3.34,-1.79c0.88,-0.4 1.75,-0.8 2.66,-1.21z" fill="#FC9104" id="svg_3"/>
  <path d="m66,65c5.01,-0.2 9.74,0.17 14.71,0.85c0.65,0.09 1.29,0.18 1.96,0.27c2.11,0.29 4.22,0.58 6.33,0.88c0.71,0.1 1.42,0.2 2.15,0.3c4.42,0.61 8.83,1.24 13.23,1.88c1.52,0.21 3.03,0.43 4.54,0.64c2.23,0.32 4.46,0.64 6.68,0.96c1.3,0.19 2.61,0.37 3.95,0.57c3.07,0.58 5.62,1.37 8.45,2.65c0.12,19.7 -0.08,39.32 -1,59c-3.88,1.73 -7.52,2.54 -11.71,3.18c-1.3,0.21 -2.6,0.41 -3.94,0.62c-1.39,0.21 -2.78,0.43 -4.16,0.64c-2.81,0.43 -5.61,0.88 -8.42,1.32c-0.68,0.1 -1.36,0.21 -2.07,0.32c-6.3,1 -12.55,2.17 -18.8,3.44c-2.7,0.45 -5.17,0.58 -7.9,0.48c-3.49,-7.91 -6.45,-15.95 -9.25,-24.13c-1.53,-4.44 -3.11,-8.84 -4.82,-13.21c-0.34,-0.85 -0.67,-1.71 -1.01,-2.59c-0.64,-1.64 -1.29,-3.27 -1.96,-4.89c-2.12,-5.46 -2.12,-5.46 -1.38,-8.82c0.7,-1.17 0.7,-1.17 1.42,-2.36c0.58,-1 1.17,-1.99 1.77,-3.02c0.67,-1.06 1.35,-2.13 2.04,-3.23c3.24,-5.16 6.31,-10.38 9.19,-15.75z" fill="#ffffff" id="svg_4"/>
  <path d="m91,20c1.88,0.19 1.88,0.19 4,1c0.69,1.66 1.35,3.33 2,5c1.12,1.86 2.29,3.7 3.49,5.51c1.05,1.59 1.05,1.59 2.12,3.21c0.37,0.56 0.74,1.11 1.12,1.69c1.93,2.9 3.84,5.81 5.76,8.72c0.57,0.88 0.57,0.88 1.16,1.77c3.51,5.34 6.98,10.7 10.41,16.1c0.51,0.79 1.01,1.58 1.54,2.39c3.4,5.37 3.4,5.37 3.4,7.61c-0.89,-0.12 -1.78,-0.24 -2.69,-0.37c-6.87,-0.92 -13.73,-1.82 -20.61,-2.63c-0.69,-0.08 -1.38,-0.16 -2.1,-0.25c-2.83,-0.34 -5.66,-0.67 -8.5,-1c-8.42,-0.98 -16.78,-2.08 -25.1,-3.75c4.57,-9.74 9.83,-18.97 15.38,-28.18c5.6,-7.99 5.6,-7.99 8.62,-16.82z" fill="#FEC837" id="svg_5"/>
  <path d="m51,92c4.34,6.51 6.45,14.26 8.86,21.65c1.55,4.57 3.28,9.07 5.03,13.57c1.75,4.53 3.01,9.05 4.11,13.78c-4.76,1.36 -8.92,0.71 -13.73,0.04c-0.83,-0.11 -1.66,-0.22 -2.52,-0.33c-1.75,-0.24 -3.5,-0.47 -5.25,-0.72c-2.69,-0.36 -5.37,-0.72 -8.06,-1.08c-1.7,-0.22 -3.41,-0.45 -5.11,-0.68c-0.8,-0.11 -1.61,-0.22 -2.44,-0.33c-5.66,-0.78 -5.66,-0.78 -7.89,-1.9c0.6,-4.16 2.97,-7.19 5.31,-10.56c4.69,-6.88 9.16,-13.87 13.58,-20.92c2.64,-4.21 5.32,-8.39 8.11,-12.52z" fill="#FEA10C" id="svg_6"/>
  <path d="m21,16c48.84,0 97.68,0 148,0c0,56.43 0,112.86 0,171c-48.84,0 -97.68,0 -148,0c0,-56.43 0,-112.86 0,-171z" fill="none" id="svg_1"/>
  <path d="m136.29,132.9c1.23,0 1.23,0 2.48,0c2.62,0.01 5.24,0.02 7.86,0.04c1.77,0 3.54,0 5.32,0.01c4.35,0.01 8.7,0.03 13.05,0.05c-1.44,4.32 -4.75,5.86 -8.37,8.31c-1.57,1.08 -3.13,2.16 -4.69,3.24c-0.81,0.57 -1.63,1.13 -2.47,1.71c-4.02,2.82 -7.96,5.75 -11.91,8.68c-8.49,6.28 -17.02,12.51 -25.61,18.65c-1.32,0.95 -2.62,1.91 -3.91,2.89c-4.72,3.52 -4.72,3.52 -8.04,3.52c1.75,-4.97 4.41,-9.35 7.06,-13.88c0.73,-1.25 0.73,-1.25 1.48,-2.53c3.44,-5.9 6.93,-11.77 10.47,-17.61c1.76,-2.92 3.47,-5.85 5.12,-8.84c3.12,-5.24 6.57,-4.28 12.16,-4.24z" fill="#F97C02" id="svg_7"/>
  <path d="m24,136c0.99,0.12 0.99,0.12 1.99,0.24c11.96,1.46 23.92,2.91 35.91,4.11c3.32,0.34 6.63,0.73 9.94,1.2c2.78,0.4 5.36,0.53 8.16,0.45c-2.32,1.55 -4.51,2.8 -7,4c4.77,7.59 9.68,15.07 14.67,22.52c0.39,0.58 0.78,1.16 1.18,1.77c1.12,1.67 2.26,3.34 3.4,5.01c1.53,2.36 2.33,3.96 2.75,6.7c-3.45,-1.28 -6.41,-2.77 -9.48,-4.79c-0.83,-0.55 -1.66,-1.09 -2.51,-1.65c-1.3,-0.87 -1.3,-0.87 -2.63,-1.75c-1.82,-1.19 -3.63,-2.38 -5.44,-3.56c-0.86,-0.57 -1.72,-1.14 -2.61,-1.72c-2.66,-1.75 -5.33,-3.46 -8.02,-5.15c-5.22,-3.31 -10.41,-6.67 -15.6,-10.03c-3.84,-2.49 -7.68,-4.97 -11.55,-7.43c-0.78,-0.5 -1.56,-1 -2.36,-1.51c-1.51,-0.97 -3.02,-1.93 -4.53,-2.88c-5.16,-3.31 -5.16,-3.31 -6.27,-5.53z" fill="#FE8103" id="svg_8"/>
 </g>
</svg>